<?xml version="1.0" standalone="no"?>
<!DOCTYPE svg PUBLIC "-//W3C//DTD SVG 20010904//EN"
 "http://www.w3.org/TR/2001/REC-SVG-20010904/DTD/svg10.dtd">
<svg version="1.0" xmlns="http://www.w3.org/2000/svg"
 width="500.000000pt" height="500.000000pt" viewBox="0 0 500.000000 500.000000"
 preserveAspectRatio="xMidYMid meet">
<metadata>
Created by potrace 1.14, written by Peter Selinger 2001-2017
</metadata>
<g transform="translate(0.000000,500.000000) scale(0.100000,-0.100000)"
fill="#000000" stroke="none">
<path d="M2 2498 l3 -2503 2 2497 3 2498 2498 3 2497 2 -2502 3 -2503 2 2
-2502z"/>
<path d="M2399 4437 c-69 -26 -119 -77 -144 -148 -21 -58 -21 -320 0 -378 34
-98 101 -151 202 -159 80 -6 139 15 186 67 60 67 69 105 65 298 -3 169 -3 170
-33 219 -58 92 -179 137 -276 101z"/>
<path d="M1240 3951 c-132 -46 -196 -197 -136 -323 22 -46 222 -245 273 -272
53 -28 154 -28 208 1 84 44 125 114 125 210 0 81 -25 122 -149 249 -140 144
-211 173 -321 135z"/>
<path d="M3605 3963 c-73 -16 -96 -32 -198 -132 -121 -119 -141 -146 -156
-213 -32 -143 76 -278 223 -278 88 1 126 23 249 145 121 119 147 161 147 245
0 104 -69 194 -171 224 -54 16 -60 17 -94 9z"/>
<path d="M2290 3490 c-198 -42 -345 -124 -490 -271 -172 -176 -260 -397 -260
-654 0 -279 105 -512 320 -705 85 -77 140 -156 140 -202 l0 -28 475 0 475 0 0
23 c1 51 42 111 141 206 188 179 274 336 315 577 15 86 16 113 5 209 -21 190
-59 299 -160 455 -45 71 -169 194 -247 248 -205 138 -477 192 -714 142z"/>
<path d="M723 2776 c-82 -39 -143 -151 -128 -235 10 -52 53 -128 89 -154 59
-43 79 -47 264 -47 200 0 232 9 288 72 98 111 77 270 -46 353 l-45 30 -185 3
c-179 3 -187 2 -237 -22z"/>
<path d="M3784 2776 c-62 -29 -109 -89 -125 -161 -22 -100 39 -220 133 -260
51 -21 372 -22 422 -1 69 29 127 103 140 178 17 96 -34 195 -124 241 -52 26
-58 27 -224 27 -159 0 -175 -2 -222 -24z"/>
<path d="M2010 1232 c0 -218 22 -284 134 -402 178 -188 483 -188 667 0 103
105 139 217 139 427 l0 133 -470 0 -470 0 0 -158z"/>
</g>
</svg>
